<svg width="83" height="19" viewBox="0 0 83 19" fill="none" xmlns="http://www.w3.org/2000/svg">
<path fill-rule="evenodd" clip-rule="evenodd" d="M79.8077 1.58333C79.8077 2.45778 80.5223 3.16667 81.4038 3.16667C82.2854 3.16667 83 2.45778 83 1.58333C83 0.708882 82.2854 -3.12371e-08 81.4038 -6.97701e-08C80.5223 -1.08303e-07 79.8077 0.708882 79.8077 1.58333ZM63.8462 1.58333C63.8462 2.45778 64.5608 3.16667 65.4423 3.16667C66.3238 3.16667 67.0385 2.45778 67.0385 1.58333C67.0385 0.708882 66.3238 -7.28938e-07 65.4423 -7.67471e-07C64.5608 -8.06004e-07 63.8462 0.708882 63.8462 1.58333ZM49.4808 3.16667C48.5992 3.16667 47.8846 2.45778 47.8846 1.58333C47.8846 0.708881 48.5992 -1.50371e-06 49.4808 -1.46517e-06C50.3623 -1.42664e-06 51.0769 0.708881 51.0769 1.58333C51.0769 2.45778 50.3623 3.16667 49.4808 3.16667ZM31.9231 1.58333C31.9231 2.45778 32.6377 3.16666 33.5192 3.16666C34.4008 3.16666 35.1154 2.45778 35.1154 1.58333C35.1154 0.70888 34.4008 -2.12434e-06 33.5192 -2.16287e-06C32.6377 -2.20141e-06 31.9231 0.70888 31.9231 1.58333ZM17.5577 3.16666C16.6762 3.16666 15.9615 2.45778 15.9615 1.58333C15.9615 0.70888 16.6762 -2.89911e-06 17.5577 -2.86057e-06C18.4392 -2.82204e-06 19.1538 0.70888 19.1538 1.58333C19.1538 2.45778 18.4392 3.16666 17.5577 3.16666ZM-6.92097e-08 1.58333C-1.07433e-07 2.45778 0.71463 3.16666 1.59615 3.16666C2.47769 3.16666 3.19231 2.45778 3.19231 1.58333C3.19231 0.708879 2.47769 -3.51974e-06 1.59615 -3.55828e-06C0.71463 -3.59681e-06 -3.09862e-08 0.708879 -6.92097e-08 1.58333ZM81.4038 19C80.5223 19 79.8077 18.2911 79.8077 17.4167C79.8077 16.5422 80.5223 15.8333 81.4038 15.8333C82.2854 15.8333 83 16.5422 83 17.4167C83 18.2911 82.2854 19 81.4038 19ZM63.8462 17.4167C63.8462 18.2911 64.5608 19 65.4423 19C66.3238 19 67.0385 18.2911 67.0385 17.4167C67.0385 16.5422 66.3238 15.8333 65.4423 15.8333C64.5608 15.8333 63.8462 16.5422 63.8462 17.4167ZM49.4808 19C48.5992 19 47.8846 18.2911 47.8846 17.4167C47.8846 16.5422 48.5992 15.8333 49.4808 15.8333C50.3623 15.8333 51.0769 16.5422 51.0769 17.4167C51.0769 18.2911 50.3623 19 49.4808 19ZM31.9231 17.4167C31.9231 18.2911 32.6377 19 33.5192 19C34.4008 19 35.1154 18.2911 35.1154 17.4167C35.1154 16.5422 34.4008 15.8333 33.5192 15.8333C32.6377 15.8333 31.9231 16.5422 31.9231 17.4167ZM17.5577 19C16.6762 19 15.9615 18.2911 15.9615 17.4167C15.9615 16.5422 16.6762 15.8333 17.5577 15.8333C18.4392 15.8333 19.1538 16.5422 19.1538 17.4167C19.1538 18.2911 18.4392 19 17.5577 19ZM-7.61307e-07 17.4167C-7.9953e-07 18.2911 0.714629 19 1.59615 19C2.47769 19 3.19231 18.2911 3.19231 17.4167C3.19231 16.5422 2.47769 15.8333 1.59615 15.8333C0.714629 15.8333 -7.23083e-07 16.5422 -7.61307e-07 17.4167Z" fill="white"/>
</svg>
